<?xml version="1.0" encoding="UTF-8" standalone="no"?>
<!-- Created with Inkscape (http://www.inkscape.org/) -->

<svg
   xmlns:dc="http://purl.org/dc/elements/1.1/"
   xmlns:cc="http://creativecommons.org/ns#"
   xmlns:rdf="http://www.w3.org/1999/02/22-rdf-syntax-ns#"
   xmlns:svg="http://www.w3.org/2000/svg"
   xmlns="http://www.w3.org/2000/svg"
   xmlns:sodipodi="http://sodipodi.sourceforge.net/DTD/sodipodi-0.dtd"
   xmlns:inkscape="http://www.inkscape.org/namespaces/inkscape"
   width="260"
   height="89"
   viewBox="0 0 68.791678 23.547932"
   version="1.1"
   id="svg337"
   inkscape:version="0.92.2 (5c3e80d, 2017-08-06)"
   sodipodi:docname="club-nidoo.svg">
  <defs
     id="defs331">
    <clipPath
       clipPathUnits="userSpaceOnUse"
       id="clipPath380">
      <path
         d="M 0,1957.79 H 1200.001 V 0 H 0 Z"
         id="path378"
         inkscape:connector-curvature="0" />
    </clipPath>
  </defs>
  <sodipodi:namedview
     id="base"
     pagecolor="#ffffff"
     bordercolor="#666666"
     borderopacity="1.0"
     inkscape:pageopacity="0.0"
     inkscape:pageshadow="2"
     inkscape:zoom="1.4"
     inkscape:cx="203.70428"
     inkscape:cy="115.39736"
     inkscape:document-units="mm"
     inkscape:current-layer="layer1"
     showgrid="false"
     units="px"
     inkscape:window-width="1366"
     inkscape:window-height="703"
     inkscape:window-x="0"
     inkscape:window-y="0"
     inkscape:window-maximized="1" />
  <metadata
     id="metadata334">
    <rdf:RDF>
      <cc:Work
         rdf:about="">
        <dc:format>image/svg+xml</dc:format>
        <dc:type
           rdf:resource="http://purl.org/dc/dcmitype/StillImage" />
        <dc:title></dc:title>
      </cc:Work>
    </rdf:RDF>
  </metadata>
  <g
     inkscape:label="Layer 1"
     inkscape:groupmode="layer"
     id="layer1"
     transform="translate(0,-273.45186)">
    <text
       y="291.28238"
       x="-0.73421711"
       transform="scale(1.029563,0.97128587)"
       style="font-variant:normal;font-weight:normal;font-stretch:normal;font-size:13.07544899px;font-family:'Tamil MN';-inkscape-font-specification:TamilMN;writing-mode:lr-tb;fill:#f08232;fill-opacity:1;fill-rule:nonzero;stroke:none;stroke-width:0.34264806"
       id="text372">
      <tspan
         style="stroke-width:0.34264806"
         x="-0.73421711 9.6476803 16.865332 26.462713"
         y="291.28238"
         sodipodi:role="line"
         id="tspan370">CLUB</tspan>
    </text>
    <g
       transform="matrix(0.35277777,0,0,-0.35277777,-176.59635,881.45124)"
       id="g374">
      <g
         id="g376"
         clip-path="url(#clipPath380)">
        <g
           id="g382"
           transform="translate(633.4168,1663.7412)">
          <path
             d="m 0,0 c -5.108,0 -9.249,4.141 -9.249,9.248 0,5.107 4.141,9.248 9.249,9.248 5.107,0 9.247,-4.141 9.247,-9.248 C 9.247,4.141 5.107,0 0,0 m 0,25.523 c -8.989,0 -16.278,-7.287 -16.278,-16.275 0,-8.988 7.289,-16.277 16.278,-16.277 8.989,0 16.276,7.289 16.276,16.277 0,8.988 -7.287,16.275 -16.276,16.275"
             style="fill:#84388c;fill-opacity:1;fill-rule:evenodd;stroke:none"
             id="path384"
             inkscape:connector-curvature="0" />
        </g>
        <g
           id="g386"
           transform="translate(679.286,1663.7412)">
          <path
             d="m 0,0 c -5.107,0 -9.247,4.141 -9.247,9.248 0,5.107 4.14,9.248 9.247,9.248 5.108,0 9.249,-4.141 9.249,-9.248 C 9.249,4.141 5.108,0 0,0 m 0,25.523 c -8.989,0 -16.276,-7.287 -16.276,-16.275 0,-8.988 7.287,-16.277 16.276,-16.277 8.989,0 16.278,7.289 16.278,16.277 0,8.988 -7.289,16.275 -16.278,16.275"
             style="fill:#84388c;fill-opacity:1;fill-rule:evenodd;stroke:none"
             id="path388"
             inkscape:connector-curvature="0" />
        </g>
        <g
           id="g390"
           transform="translate(514.8651,1685.8525)">
          <path
             d="M 0,0 11.439,-16.363 V 0.174 c 0,1.23 0.267,2.154 0.801,2.769 0.535,0.618 1.256,0.926 2.162,0.926 0.938,0 2.774,-0.308 3.315,-0.926 0.541,-0.615 0.812,-1.539 0.812,-2.769 v -25.063 c 0,-2.797 -1.171,-4.195 -3.512,-4.195 -0.586,0 -1.113,0.084 -1.582,0.25 -0.467,0.166 -0.908,0.432 -1.316,0.793 -0.41,0.363 -0.79,0.785 -1.142,1.271 -0.351,0.487 -0.702,0.983 -1.054,1.491 L -1.783,-8.906 v -16.483 c 0,-1.216 -0.285,-2.136 -0.856,-2.759 -0.571,-0.623 -1.302,-0.936 -2.196,-0.936 -0.922,0 -2.183,0.314 -2.738,0.945 -0.558,0.631 -0.834,1.547 -0.834,2.75 v 24.584 c 0,1.043 0.117,1.862 0.35,2.455 0.279,0.655 0.741,1.186 1.383,1.6 0.645,0.412 1.34,0.619 2.086,0.619 0.585,0 1.086,-0.094 1.504,-0.283 0.418,-0.19 0.782,-0.443 1.098,-0.76 C -1.672,2.506 -1.35,2.094 -1.02,1.586 -0.691,1.078 -0.35,0.551 0,0"
             style="fill:#84388c;fill-opacity:1;fill-rule:nonzero;stroke:none"
             id="path392"
             inkscape:connector-curvature="0" />
        </g>
        <g
           id="g394"
           transform="translate(550.6248,1660.7021)">
          <path
             d="m 0,0 v 25.105 c 0,1.305 0.33,2.284 0.994,2.936 0.662,0.652 1.518,0.979 2.568,0.979 1.082,0 1.958,-0.323 2.628,-0.969 0.671,-0.645 1.005,-1.625 1.005,-2.946 V 0 c 0,-1.318 -0.334,-2.303 -1.005,-2.955 -0.67,-0.652 -1.546,-0.979 -2.628,-0.979 -1.035,0 -1.886,0.33 -2.556,0.991 C 0.334,-2.285 0,-1.303 0,0"
             style="fill:#84388c;fill-opacity:1;fill-rule:nonzero;stroke:none"
             id="path396"
             inkscape:connector-curvature="0" />
        </g>
        <g
           id="g398"
           transform="translate(581.6541,1681.7178)">
          <path
             d="m 0,0 v -17.953 h 5.407 c 0.962,0 1.716,0.023 2.261,0.072 0.547,0.047 1.111,0.168 1.696,0.361 0.585,0.192 1.091,0.463 1.521,0.811 1.935,1.516 2.904,4.127 2.904,7.832 0,2.609 -0.426,4.565 -1.278,5.863 -0.851,1.299 -1.9,2.127 -3.147,2.481 C 8.117,-0.178 5.588,0 3.82,0 Z m -2.573,5.98 h 8.664 c 2.253,0 4.186,-0.193 5.798,-0.58 1.613,-0.386 3.075,-1.113 4.388,-2.175 3.417,-2.709 5.127,-6.829 5.127,-12.356 0,-1.824 -0.172,-3.488 -0.515,-4.994 -0.344,-1.506 -0.873,-2.863 -1.59,-4.072 -0.715,-1.209 -1.634,-2.291 -2.752,-3.244 -0.882,-0.733 -1.844,-1.319 -2.89,-1.762 -1.044,-0.443 -2.168,-0.754 -3.368,-0.932 -1.203,-0.181 -2.557,-0.271 -4.064,-0.271 h -8.664 c -1.209,0 -2.12,0.17 -2.731,0.508 -0.613,0.339 -1.012,0.816 -1.197,1.431 -0.189,0.613 -0.281,1.412 -0.281,2.393 V 2.207 c 0,1.328 0.321,2.287 0.963,2.881 0.641,0.594 1.679,0.892 3.112,0.892"
             style="fill:#84388c;fill-opacity:1;fill-rule:nonzero;stroke:none"
             id="path400"
             inkscape:connector-curvature="0" />
        </g>
        <g
           id="g402"
           transform="translate(695.203,1691.3975)">
          <path
             d="M 0,0 C -0.138,-1.098 -3.84,-3.152 -5.484,0.273 -9.903,9.338 -18.869,7.232 -24.779,8.824 -34.74,24.678 -72.801,29.75 -71.978,-0.137 -73.35,-2.33 -77.052,-2.193 -77.6,-0.41 -79.793,34.688 -37.978,35.646 -20.14,15.627 2.33,13.709 0.135,0.822 0,0"
             style="fill:#84388c;fill-opacity:1;fill-rule:evenodd;stroke:none"
             id="path404"
             inkscape:connector-curvature="0" />
        </g>
      </g>
    </g>
  </g>
</svg>
